# xmcd
#
# Track frame offsets: 
#        150
#        21227
#        37340
#        53898
#        70236
#        89515
#        108786
#        128797
#        159954
#        178616
#        194973
#        214813
#
# Disc length: 3233 seconds
#
# Revision: 3
# Processed by: cddbd v1.5.2PL0 Copyright (c) Steve Scherf et al.
# Submitted via: ExactAudioCopy v0.99pb4
#
DISCID=b00c9f0c
DTITLE=JJ Grey and Mofro - Orange Blossoms
DYEAR=2008
DGENRE=Blues
TTITLE0=Orange Blossoms
TTITLE1=The Devil You Know
TTITLE2=Everything Good Is Bad
TTITLE3=She Don't Know
TTITLE4=The Truth
TTITLE5=WYLF
TTITLE6=On Fire
TTITLE7=Move It On
TTITLE8=Higher You Climb
TTITLE9=Dew Drops
TTITLE10=Ybor City
TTITLE11=I Believe (In Everything)
EXTD=YEAR: 2008
EXTT0=
EXTT1=
EXTT2=
EXTT3=
EXTT4=
EXTT5=
EXTT6=
EXTT7=
EXTT8=
EXTT9=
EXTT10=
EXTT11=
PLAYORDER=
